<?xml version="1.0"?>
<svg version="1.1" xmlns="http://www.w3.org/2000/svg" width="200px" height="50px" style=""><path fill="#164b70" d="M19.584,46.528l2.232,0l0-15.228q0-3.024,2.304-5.328t5.328-2.304q2.952,0,5.328,2.304q2.268,2.268,2.268,5.328l0,15.228l2.304,0l0-15.228q0-3.096,2.304-5.328q2.304-2.304,5.292-2.304q3.024,0,5.328,2.304t2.304,5.328l0,15.228l2.232,0l0-15.228q0-4.104-2.88-6.984t-6.984-2.88q-2.7,0-5.076,1.476q-2.412,1.512-3.456,3.852q-1.404-2.412-3.78-3.852q-2.484-1.476-5.184-1.476q-4.068,0-6.948,2.88q-2.916,2.916-2.916,6.984l0,15.228z M81.64224,21.4l-2.232,0l0,2.664q0,3.312-2.304,5.544q-2.268,2.16-5.4,2.16q-3.348,0-5.508-2.16t-2.16-5.544l0-2.664l-2.232,0l0,2.664q0,4.032,2.448,6.84q2.412,2.844,6.12,3.096l0,12.636l2.268,0l0-12.636q3.78-0.288,6.372-3.096q2.628-2.808,2.628-6.84l0-2.664z M94.74048,21.364l-5.508,0l-1.368,0l-0.9,0l0,25.236l0.9,0l1.368,0l5.508,0q5.256,0,9-3.672q3.852-3.78,3.852-9.18q0-5.112-3.852-8.784q-3.78-3.6-9-3.6z M94.74048,44.332l-5.508,0l0-20.628l5.508,0q4.5,0,7.56,2.952q3.024,2.952,3.024,7.092q0,4.5-3.024,7.524q-3.06,3.06-7.56,3.06z M122.38272,21.256q-4.032,0-6.768,2.916q-2.7,2.88-2.7,7.02l0,15.408l2.268,0l0-11.304l14.472,0l0,11.304l2.268,0l0-15.408q0-4.14-2.7-7.02q-2.808-2.916-6.84-2.916z M129.65472,33.064l-14.472,0l0-1.872q0-3.096,2.088-5.364q2.124-2.304,5.112-2.304t5.184,2.304q2.088,2.268,2.088,5.364l0,1.872z M143.22096,24.028l13.572,0l0-2.736l-13.572,0q-2.664,0-4.464,2.088q-1.836,2.124-1.836,5.148q0,2.736,1.836,4.752q1.8,2.052,4.464,2.052l3.6,0l3.672,0q1.62,0,2.88,1.368q1.188,1.44,1.188,3.132q0,2.016-1.17,3.276t-2.898,1.26l-13.572,0l0,2.232l13.572,0q2.7,0,4.5-1.872t1.8-4.896q0-2.736-1.8-4.752q-1.836-2.016-4.5-2.016l-3.672,0l-3.6,0q-1.656,0-2.844-1.44q-1.224-1.332-1.224-3.096q0-2.016,1.17-3.258t2.898-1.242z M181.8072,21.328l-2.268,0l0,11.52l-15.192,0l0-11.52l-2.268,0l0,25.272l2.268,0l0-11.484l15.192,0l0,11.484l2.268,0l0-25.272z"/><path fill="#" d=""/></svg>
