<svg xmlns="http://www.w3.org/2000/svg" viewBox="5.85 3.85 12.3 18.3">
	<path d="M 8 4 C 8 4 6 4 6 6 m 2 0 l 0 14 C 8 20 8 21 9 21 L 15 21 C 15 21 16 21 16 20 L 16 6 C 16 6 16 5 15 5 L 9 5 C 8 5 8 6 8 6 L 8 6 M 12 8 A 2 2 90 0 0 10 10 A 2 2 90 0 0 12 12 A 1 1 0 0 0 12 12 A 2 2 90 0 0 14 10 A 2 2 90 0 0 12 8 M 12 7 C 9 7 9 10 9 10 C 9 13 12 13 12 13 C 15 13 15 10 15 10 C 15 7 12 7 12 7 M 10 14 C 8 14 8 16 10 16 L 14 16 C 16 16 16 14 14 14 L 10 14 m -4 -8 L 6 20 C 6 20 6 22 8 22 H 16 C 16 22 18 22 18 20 V 6 C 18 4 16 4 16 4 L 8 4 M 16 4 L 8 4" stroke="#000" stroke-width="0.5" fill="#fff"/>
</svg>